<?xml version="1.0" standalone="no"?>
<!DOCTYPE svg PUBLIC "-//W3C//DTD SVG 20010904//EN"
 "http://www.w3.org/TR/2001/REC-SVG-20010904/DTD/svg10.dtd">
<svg version="1.0" xmlns="http://www.w3.org/2000/svg"
 width="332.000000pt" height="332.000000pt" viewBox="0 0 332.000000 332.000000"
 preserveAspectRatio="xMidYMid meet">
<metadata>
Created by potrace 1.14, written by Peter Selinger 2001-2017
</metadata>
<g transform="translate(0.000000,332.000000) scale(0.100000,-0.100000)"
fill="#000000" stroke="none">
<path d="M1405 3197 c-37 -18 -115 -89 -307 -280 -141 -142 -260 -257 -265
-257 -11 0 -323 -313 -323 -324 0 -4 -99 -107 -220 -228 -275 -274 -283 -285
-286 -393 -5 -131 6 -148 283 -430 130 -132 275 -280 323 -330 48 -49 90 -91
94 -92 8 -2 73 -59 166 -147 37 -33 131 -122 210 -196 80 -74 179 -168 222
-207 l77 -73 -132 0 c-317 -2 -543 -14 -560 -30 -12 -11 2 -17 53 -24 25 -4
56 -9 70 -11 24 -4 156 -13 295 -21 436 -22 1150 -22 1270 1 58 12 48 22 -31
35 -82 13 -137 17 -404 35 -30 2 -93 4 -139 4 l-84 1 34 33 c28 26 219 202
263 242 188 171 447 421 699 675 352 354 360 365 361 480 2 133 36 93 -702
832 -481 483 -679 674 -716 694 -73 40 -181 45 -251 11z"/>
</g>
</svg>
