<svg xmlns="http://www.w3.org/2000/svg" viewBox="0 0 1100 520" width="1100" height="520">
  <defs>
    <linearGradient id="bgGrad" x1="0" y1="0" x2="0" y2="1">
      <stop offset="0%" stop-color="#0f172a"/>
      <stop offset="100%" stop-color="#1e293b"/>
    </linearGradient>
    <linearGradient id="progressGrad" x1="0" y1="0" x2="1" y2="0">
      <stop offset="0%" stop-color="#22c55e"/>
      <stop offset="100%" stop-color="#16a34a"/>
    </linearGradient>
    <filter id="phoneShadow">
      <feDropShadow dx="0" dy="3" stdDeviation="6" flood-color="#000" flood-opacity="0.5"/>
    </filter>
  </defs>

  <!-- Background -->
  <rect width="1100" height="520" fill="url(#bgGrad)"/>

  <!-- Title -->
  <text x="550" y="36" font-family="Arial, sans-serif" font-size="20" font-weight="bold" fill="#ffffff" text-anchor="middle">Hourly Status Emails — Right to Your Phone</text>

  <!-- ============================================ -->
  <!-- Phone 1: 25% progress                       -->
  <!-- ============================================ -->
  <g transform="translate(28, 55)" filter="url(#phoneShadow)">
    <!-- Phone body -->
    <rect x="0" y="0" width="190" height="390" rx="24" fill="#1a1a1a" stroke="#333" stroke-width="1.5"/>
    <!-- Screen -->
    <rect x="8" y="28" width="174" height="340" rx="4" fill="#111827"/>
    <!-- Notch -->
    <rect x="65" y="8" width="60" height="16" rx="8" fill="#0a0a0a"/>
    <!-- Status bar -->
    <text x="22" y="46" font-family="Arial, sans-serif" font-size="9" fill="#64748b">10:00 AM</text>

    <!-- Email content -->
    <rect x="16" y="54" width="158" height="24" rx="4" fill="#1e293b"/>
    <text x="95" y="70" font-family="Arial, sans-serif" font-size="10" font-weight="bold" fill="#00d4aa" text-anchor="middle">Evernote to OneNote</text>

    <!-- Status badge - in progress -->
    <rect x="48" y="86" width="94" height="20" rx="10" fill="#3b82f6" opacity="0.2"/>
    <circle cx="62" cy="96" r="4" fill="#3b82f6"/>
    <text x="72" y="100" font-family="Arial, sans-serif" font-size="10" font-weight="bold" fill="#3b82f6">In Progress</text>

    <!-- Progress bar -->
    <text x="16" y="124" font-family="Arial, sans-serif" font-size="9" fill="#64748b">Progress</text>
    <rect x="16" y="130" width="140" height="10" rx="5" fill="#334155"/>
    <rect x="16" y="130" width="35" height="10" rx="5" fill="url(#progressGrad)"/>
    <text x="162" y="139" font-family="Arial, sans-serif" font-size="10" font-weight="bold" fill="#e2e8f0" text-anchor="end">25%</text>

    <!-- Stats -->
    <rect x="16" y="150" width="70" height="40" rx="5" fill="#1e293b"/>
    <text x="51" y="166" font-family="Arial, sans-serif" font-size="8" fill="#64748b" text-anchor="middle">Done</text>
    <text x="51" y="183" font-family="Arial, sans-serif" font-size="14" font-weight="bold" fill="#22c55e" text-anchor="middle">316</text>

    <rect x="96" y="150" width="70" height="40" rx="5" fill="#1e293b"/>
    <text x="131" y="166" font-family="Arial, sans-serif" font-size="8" fill="#64748b" text-anchor="middle">Remaining</text>
    <text x="131" y="183" font-family="Arial, sans-serif" font-size="14" font-weight="bold" fill="#f59e0b" text-anchor="middle">946</text>

    <rect x="16" y="198" width="70" height="40" rx="5" fill="#1e293b"/>
    <text x="51" y="214" font-family="Arial, sans-serif" font-size="8" fill="#64748b" text-anchor="middle">Speed</text>
    <text x="51" y="230" font-family="Arial, sans-serif" font-size="11" font-weight="bold" fill="#e2e8f0" text-anchor="middle">~10/min</text>

    <rect x="96" y="198" width="70" height="40" rx="5" fill="#1e293b"/>
    <text x="131" y="214" font-family="Arial, sans-serif" font-size="8" fill="#64748b" text-anchor="middle">ETA</text>
    <text x="131" y="230" font-family="Arial, sans-serif" font-size="11" font-weight="bold" fill="#e2e8f0" text-anchor="middle">~95 min</text>

    <!-- File -->
    <text x="16" y="260" font-family="Arial, sans-serif" font-size="8" fill="#64748b">Converting:</text>
    <rect x="16" y="266" width="150" height="22" rx="4" fill="#1e293b"/>
    <text x="24" y="281" font-family="Arial, sans-serif" font-size="9" fill="#e2e8f0">Work-Notes.enex</text>

    <!-- Button -->
    <rect x="24" y="300" width="142" height="30" rx="6" fill="#3b82f6"/>
    <text x="95" y="320" font-family="Arial, sans-serif" font-size="11" font-weight="bold" fill="#fff" text-anchor="middle">View Dashboard</text>

    <!-- Footer -->
    <text x="95" y="350" font-family="Arial, sans-serif" font-size="8" fill="#475569" text-anchor="middle">No login required</text>

    <!-- Home indicator -->
    <rect x="62" y="378" width="66" height="4" rx="2" fill="#444"/>
  </g>

  <!-- Arrow 1 -->
  <g transform="translate(228, 240)">
    <text x="0" y="-8" font-family="Arial, sans-serif" font-size="10" fill="#64748b" text-anchor="middle">1 hr</text>
    <line x1="-15" y1="0" x2="15" y2="0" stroke="#475569" stroke-width="2"/>
    <polygon points="15,-5 25,0 15,5" fill="#475569"/>
  </g>

  <!-- ============================================ -->
  <!-- Phone 2: 67% progress                       -->
  <!-- ============================================ -->
  <g transform="translate(255, 55)" filter="url(#phoneShadow)">
    <rect x="0" y="0" width="190" height="390" rx="24" fill="#1a1a1a" stroke="#333" stroke-width="1.5"/>
    <rect x="8" y="28" width="174" height="340" rx="4" fill="#111827"/>
    <rect x="65" y="8" width="60" height="16" rx="8" fill="#0a0a0a"/>
    <text x="22" y="46" font-family="Arial, sans-serif" font-size="9" fill="#64748b">11:00 AM</text>

    <rect x="16" y="54" width="158" height="24" rx="4" fill="#1e293b"/>
    <text x="95" y="70" font-family="Arial, sans-serif" font-size="10" font-weight="bold" fill="#00d4aa" text-anchor="middle">Evernote to OneNote</text>

    <rect x="48" y="86" width="94" height="20" rx="10" fill="#3b82f6" opacity="0.2"/>
    <circle cx="62" cy="96" r="4" fill="#3b82f6"/>
    <text x="72" y="100" font-family="Arial, sans-serif" font-size="10" font-weight="bold" fill="#3b82f6">In Progress</text>

    <text x="16" y="124" font-family="Arial, sans-serif" font-size="9" fill="#64748b">Progress</text>
    <rect x="16" y="130" width="140" height="10" rx="5" fill="#334155"/>
    <rect x="16" y="130" width="94" height="10" rx="5" fill="url(#progressGrad)"/>
    <text x="162" y="139" font-family="Arial, sans-serif" font-size="10" font-weight="bold" fill="#e2e8f0" text-anchor="end">67%</text>

    <rect x="16" y="150" width="70" height="40" rx="5" fill="#1e293b"/>
    <text x="51" y="166" font-family="Arial, sans-serif" font-size="8" fill="#64748b" text-anchor="middle">Done</text>
    <text x="51" y="183" font-family="Arial, sans-serif" font-size="14" font-weight="bold" fill="#22c55e" text-anchor="middle">847</text>

    <rect x="96" y="150" width="70" height="40" rx="5" fill="#1e293b"/>
    <text x="131" y="166" font-family="Arial, sans-serif" font-size="8" fill="#64748b" text-anchor="middle">Remaining</text>
    <text x="131" y="183" font-family="Arial, sans-serif" font-size="14" font-weight="bold" fill="#f59e0b" text-anchor="middle">415</text>

    <rect x="16" y="198" width="70" height="40" rx="5" fill="#1e293b"/>
    <text x="51" y="214" font-family="Arial, sans-serif" font-size="8" fill="#64748b" text-anchor="middle">Speed</text>
    <text x="51" y="230" font-family="Arial, sans-serif" font-size="11" font-weight="bold" fill="#e2e8f0" text-anchor="middle">~10/min</text>

    <rect x="96" y="198" width="70" height="40" rx="5" fill="#1e293b"/>
    <text x="131" y="214" font-family="Arial, sans-serif" font-size="8" fill="#64748b" text-anchor="middle">ETA</text>
    <text x="131" y="230" font-family="Arial, sans-serif" font-size="11" font-weight="bold" fill="#e2e8f0" text-anchor="middle">~42 min</text>

    <text x="16" y="260" font-family="Arial, sans-serif" font-size="8" fill="#64748b">Converting:</text>
    <rect x="16" y="266" width="150" height="22" rx="4" fill="#1e293b"/>
    <text x="24" y="281" font-family="Arial, sans-serif" font-size="9" fill="#e2e8f0">Work-Notes.enex</text>

    <rect x="24" y="300" width="142" height="30" rx="6" fill="#3b82f6"/>
    <text x="95" y="320" font-family="Arial, sans-serif" font-size="11" font-weight="bold" fill="#fff" text-anchor="middle">View Dashboard</text>

    <text x="95" y="350" font-family="Arial, sans-serif" font-size="8" fill="#475569" text-anchor="middle">No login required</text>
    <rect x="62" y="378" width="66" height="4" rx="2" fill="#444"/>
  </g>

  <!-- Arrow 2 -->
  <g transform="translate(455, 240)">
    <text x="0" y="-8" font-family="Arial, sans-serif" font-size="10" fill="#64748b" text-anchor="middle">1 hr</text>
    <line x1="-15" y1="0" x2="15" y2="0" stroke="#475569" stroke-width="2"/>
    <polygon points="15,-5 25,0 15,5" fill="#475569"/>
  </g>

  <!-- ============================================ -->
  <!-- Phone 3: 92% progress                       -->
  <!-- ============================================ -->
  <g transform="translate(482, 55)" filter="url(#phoneShadow)">
    <rect x="0" y="0" width="190" height="390" rx="24" fill="#1a1a1a" stroke="#333" stroke-width="1.5"/>
    <rect x="8" y="28" width="174" height="340" rx="4" fill="#111827"/>
    <rect x="65" y="8" width="60" height="16" rx="8" fill="#0a0a0a"/>
    <text x="22" y="46" font-family="Arial, sans-serif" font-size="9" fill="#64748b">12:00 PM</text>

    <rect x="16" y="54" width="158" height="24" rx="4" fill="#1e293b"/>
    <text x="95" y="70" font-family="Arial, sans-serif" font-size="10" font-weight="bold" fill="#00d4aa" text-anchor="middle">Evernote to OneNote</text>

    <rect x="48" y="86" width="94" height="20" rx="10" fill="#3b82f6" opacity="0.2"/>
    <circle cx="62" cy="96" r="4" fill="#3b82f6"/>
    <text x="72" y="100" font-family="Arial, sans-serif" font-size="10" font-weight="bold" fill="#3b82f6">In Progress</text>

    <text x="16" y="124" font-family="Arial, sans-serif" font-size="9" fill="#64748b">Progress</text>
    <rect x="16" y="130" width="140" height="10" rx="5" fill="#334155"/>
    <rect x="16" y="130" width="129" height="10" rx="5" fill="url(#progressGrad)"/>
    <text x="162" y="139" font-family="Arial, sans-serif" font-size="10" font-weight="bold" fill="#e2e8f0" text-anchor="end">92%</text>

    <rect x="16" y="150" width="70" height="40" rx="5" fill="#1e293b"/>
    <text x="51" y="166" font-family="Arial, sans-serif" font-size="8" fill="#64748b" text-anchor="middle">Done</text>
    <text x="51" y="183" font-family="Arial, sans-serif" font-size="14" font-weight="bold" fill="#22c55e" text-anchor="middle">1,161</text>

    <rect x="96" y="150" width="70" height="40" rx="5" fill="#1e293b"/>
    <text x="131" y="166" font-family="Arial, sans-serif" font-size="8" fill="#64748b" text-anchor="middle">Remaining</text>
    <text x="131" y="183" font-family="Arial, sans-serif" font-size="14" font-weight="bold" fill="#f59e0b" text-anchor="middle">101</text>

    <rect x="16" y="198" width="70" height="40" rx="5" fill="#1e293b"/>
    <text x="51" y="214" font-family="Arial, sans-serif" font-size="8" fill="#64748b" text-anchor="middle">Speed</text>
    <text x="51" y="230" font-family="Arial, sans-serif" font-size="11" font-weight="bold" fill="#e2e8f0" text-anchor="middle">~10/min</text>

    <rect x="96" y="198" width="70" height="40" rx="5" fill="#1e293b"/>
    <text x="131" y="214" font-family="Arial, sans-serif" font-size="8" fill="#64748b" text-anchor="middle">ETA</text>
    <text x="131" y="230" font-family="Arial, sans-serif" font-size="11" font-weight="bold" fill="#e2e8f0" text-anchor="middle">~10 min</text>

    <text x="16" y="260" font-family="Arial, sans-serif" font-size="8" fill="#64748b">Converting:</text>
    <rect x="16" y="266" width="150" height="22" rx="4" fill="#1e293b"/>
    <text x="24" y="281" font-family="Arial, sans-serif" font-size="9" fill="#e2e8f0">Work-Notes.enex</text>

    <rect x="24" y="300" width="142" height="30" rx="6" fill="#3b82f6"/>
    <text x="95" y="320" font-family="Arial, sans-serif" font-size="11" font-weight="bold" fill="#fff" text-anchor="middle">View Dashboard</text>

    <text x="95" y="350" font-family="Arial, sans-serif" font-size="8" fill="#475569" text-anchor="middle">No login required</text>
    <rect x="62" y="378" width="66" height="4" rx="2" fill="#444"/>
  </g>

  <!-- Arrow 3 -->
  <g transform="translate(682, 240)">
    <text x="0" y="-8" font-family="Arial, sans-serif" font-size="10" fill="#22c55e" text-anchor="middle">Done!</text>
    <line x1="-15" y1="0" x2="15" y2="0" stroke="#22c55e" stroke-width="2"/>
    <polygon points="15,-5 25,0 15,5" fill="#22c55e"/>
  </g>

  <!-- ============================================ -->
  <!-- Phone 4: COMPLETE!                           -->
  <!-- ============================================ -->
  <g transform="translate(709, 55)" filter="url(#phoneShadow)">
    <rect x="0" y="0" width="190" height="390" rx="24" fill="#1a1a1a" stroke="#333" stroke-width="1.5"/>
    <rect x="8" y="28" width="174" height="340" rx="4" fill="#111827"/>
    <rect x="65" y="8" width="60" height="16" rx="8" fill="#0a0a0a"/>
    <text x="22" y="46" font-family="Arial, sans-serif" font-size="9" fill="#64748b">12:12 PM</text>

    <rect x="16" y="54" width="158" height="24" rx="4" fill="#1e293b"/>
    <text x="95" y="70" font-family="Arial, sans-serif" font-size="10" font-weight="bold" fill="#00d4aa" text-anchor="middle">Evernote to OneNote</text>

    <!-- COMPLETE badge -->
    <rect x="40" y="86" width="110" height="20" rx="10" fill="#22c55e" opacity="0.2"/>
    <!-- Checkmark circle -->
    <circle cx="56" cy="96" r="7" fill="#22c55e"/>
    <path d="M52,96 L55,99 L60,93" fill="none" stroke="#fff" stroke-width="1.5" stroke-linecap="round" stroke-linejoin="round"/>
    <text x="68" y="100" font-family="Arial, sans-serif" font-size="10" font-weight="bold" fill="#22c55e">Complete!</text>

    <!-- Full progress bar -->
    <text x="16" y="124" font-family="Arial, sans-serif" font-size="9" fill="#64748b">Progress</text>
    <rect x="16" y="130" width="140" height="10" rx="5" fill="#334155"/>
    <rect x="16" y="130" width="140" height="10" rx="5" fill="url(#progressGrad)"/>
    <text x="162" y="139" font-family="Arial, sans-serif" font-size="10" font-weight="bold" fill="#22c55e" text-anchor="end">100%</text>

    <!-- Final stats -->
    <rect x="16" y="150" width="70" height="40" rx="5" fill="#1e293b"/>
    <text x="51" y="166" font-family="Arial, sans-serif" font-size="8" fill="#64748b" text-anchor="middle">Total Notes</text>
    <text x="51" y="183" font-family="Arial, sans-serif" font-size="14" font-weight="bold" fill="#22c55e" text-anchor="middle">1,262</text>

    <rect x="96" y="150" width="70" height="40" rx="5" fill="#1e293b"/>
    <text x="131" y="166" font-family="Arial, sans-serif" font-size="8" fill="#64748b" text-anchor="middle">Time Taken</text>
    <text x="131" y="183" font-family="Arial, sans-serif" font-size="14" font-weight="bold" fill="#e2e8f0" text-anchor="middle">2h 12m</text>

    <rect x="16" y="198" width="150" height="40" rx="5" fill="#1e293b"/>
    <text x="91" y="214" font-family="Arial, sans-serif" font-size="8" fill="#64748b" text-anchor="middle">Attachments Converted</text>
    <text x="91" y="232" font-family="Arial, sans-serif" font-size="14" font-weight="bold" fill="#e2e8f0" text-anchor="middle">3,847 files</text>

    <!-- Success message -->
    <rect x="16" y="252" width="158" height="42" rx="6" fill="#22c55e" opacity="0.1" stroke="#22c55e" stroke-width="1"/>
    <text x="95" y="271" font-family="Arial, sans-serif" font-size="10" fill="#22c55e" text-anchor="middle">All notes are now in</text>
    <text x="95" y="285" font-family="Arial, sans-serif" font-size="10" fill="#22c55e" text-anchor="middle" font-weight="bold">your OneNote notebook!</text>

    <!-- Button -->
    <rect x="24" y="306" width="142" height="30" rx="6" fill="#22c55e"/>
    <text x="95" y="326" font-family="Arial, sans-serif" font-size="11" font-weight="bold" fill="#fff" text-anchor="middle">Open in OneNote</text>

    <text x="95" y="356" font-family="Arial, sans-serif" font-size="8" fill="#475569" text-anchor="middle">Temporary data cleaned up</text>

    <rect x="62" y="378" width="66" height="4" rx="2" fill="#444"/>
  </g>

  <!-- Bottom label -->
  <text x="550" y="478" font-family="Arial, sans-serif" font-size="14" fill="#94a3b8" text-anchor="middle" font-style="italic">Hourly status emails keep you informed — no login required to check progress</text>

  <!-- Timeline dots below phones -->
  <g transform="translate(0, 490)">
    <line x1="123" y1="0" x2="804" y2="0" stroke="#334155" stroke-width="2"/>
    <circle cx="123" cy="0" r="5" fill="#3b82f6"/>
    <circle cx="350" cy="0" r="5" fill="#3b82f6"/>
    <circle cx="577" cy="0" r="5" fill="#3b82f6"/>
    <circle cx="804" cy="0" r="7" fill="#22c55e"/>
    <text x="123" y="16" font-family="Arial, sans-serif" font-size="9" fill="#64748b" text-anchor="middle">10:00 AM</text>
    <text x="350" y="16" font-family="Arial, sans-serif" font-size="9" fill="#64748b" text-anchor="middle">11:00 AM</text>
    <text x="577" y="16" font-family="Arial, sans-serif" font-size="9" fill="#64748b" text-anchor="middle">12:00 PM</text>
    <text x="804" y="16" font-family="Arial, sans-serif" font-size="9" fill="#22c55e" text-anchor="middle" font-weight="bold">12:12 PM</text>
  </g>
</svg>
